<svg width="137" height="55" viewBox="0 0 137 55" fill="none" xmlns="http://www.w3.org/2000/svg">
<rect width="137" height="55" rx="10" fill="#FFD11A"/>
<path d="M32.3111 25.1662H30.3168C30.2401 24.7401 30.0973 24.3651 29.8885 24.0412C29.6797 23.7173 29.424 23.4425 29.1214 23.2166C28.8189 22.9908 28.4801 22.8203 28.1051 22.7053C27.7344 22.5902 27.3402 22.5327 26.9226 22.5327C26.1683 22.5327 25.4929 22.7223 24.8963 23.1016C24.304 23.4808 23.8352 24.0369 23.4901 24.7699C23.1491 25.5028 22.9787 26.3977 22.9787 27.4545C22.9787 28.5199 23.1491 29.419 23.4901 30.152C23.8352 30.8849 24.3061 31.4389 24.9027 31.8139C25.4993 32.1889 26.1705 32.3764 26.9162 32.3764C27.3295 32.3764 27.7216 32.321 28.0923 32.2102C28.4673 32.0952 28.8061 31.9268 29.1087 31.7053C29.4112 31.4837 29.6669 31.2131 29.8757 30.8935C30.0888 30.5696 30.2358 30.1989 30.3168 29.7812L32.3111 29.7876C32.2045 30.4311 31.9979 31.0234 31.6911 31.5646C31.3885 32.1016 30.9986 32.5661 30.5213 32.9581C30.0483 33.3459 29.5071 33.6463 28.8977 33.8594C28.2884 34.0724 27.6236 34.179 26.9034 34.179C25.7699 34.179 24.7599 33.9105 23.8736 33.3736C22.9872 32.8324 22.2884 32.0589 21.777 31.0533C21.2699 30.0476 21.0163 28.848 21.0163 27.4545C21.0163 26.0568 21.272 24.8572 21.7834 23.8558C22.2947 22.8501 22.9936 22.0788 23.88 21.5419C24.7663 21.0007 25.7741 20.7301 26.9034 20.7301C27.598 20.7301 28.2457 20.8303 28.8466 21.0305C29.4517 21.2266 29.995 21.5163 30.4766 21.8999C30.9581 22.2791 31.3565 22.7436 31.6719 23.2933C31.9872 23.8388 32.2003 24.4631 32.3111 25.1662ZM38.6568 34.1982C37.7363 34.1982 36.9331 33.9872 36.247 33.5653C35.5609 33.1435 35.0282 32.5533 34.649 31.7947C34.2697 31.0362 34.0801 30.1499 34.0801 29.1357C34.0801 28.1172 34.2697 27.2266 34.649 26.4638C35.0282 25.701 35.5609 25.1087 36.247 24.6868C36.9331 24.2649 37.7363 24.054 38.6568 24.054C39.5772 24.054 40.3805 24.2649 41.0666 24.6868C41.7527 25.1087 42.2853 25.701 42.6646 26.4638C43.0439 27.2266 43.2335 28.1172 43.2335 29.1357C43.2335 30.1499 43.0439 31.0362 42.6646 31.7947C42.2853 32.5533 41.7527 33.1435 41.0666 33.5653C40.3805 33.9872 39.5772 34.1982 38.6568 34.1982ZM38.6632 32.5938C39.2598 32.5938 39.7541 32.4361 40.1461 32.1207C40.5382 31.8054 40.8279 31.3857 41.0154 30.8615C41.2072 30.3374 41.3031 29.7599 41.3031 29.1293C41.3031 28.5028 41.2072 27.9276 41.0154 27.4034C40.8279 26.875 40.5382 26.451 40.1461 26.1314C39.7541 25.8118 39.2598 25.652 38.6632 25.652C38.0623 25.652 37.5637 25.8118 37.1674 26.1314C36.7754 26.451 36.4835 26.875 36.2917 27.4034C36.1042 27.9276 36.0105 28.5028 36.0105 29.1293C36.0105 29.7599 36.1042 30.3374 36.2917 30.8615C36.4835 31.3857 36.7754 31.8054 37.1674 32.1207C37.5637 32.4361 38.0623 32.5938 38.6632 32.5938ZM47.2781 28.1705V34H45.3668V24.1818H47.2013V25.7798H47.3228C47.5487 25.2599 47.9023 24.8423 48.3839 24.527C48.8697 24.2116 49.4812 24.054 50.2184 24.054C50.8874 24.054 51.4734 24.1946 51.9762 24.4759C52.479 24.7528 52.869 25.1662 53.146 25.7159C53.4229 26.2656 53.5614 26.9453 53.5614 27.755V34H51.6502V27.9851C51.6502 27.2734 51.4648 26.7173 51.0941 26.3168C50.7234 25.9119 50.2141 25.7095 49.5664 25.7095C49.1232 25.7095 48.729 25.8054 48.3839 25.9972C48.043 26.1889 47.7724 26.4702 47.5721 26.8409C47.3761 27.2074 47.2781 27.6506 47.2781 28.1705ZM60.7077 24.1818V25.7159H55.3448V24.1818H60.7077ZM56.783 21.8295H58.6942V31.1172C58.6942 31.4879 58.7496 31.767 58.8604 31.9545C58.9712 32.1378 59.114 32.2635 59.2887 32.3317C59.4677 32.3956 59.6616 32.4276 59.8704 32.4276C60.0238 32.4276 60.158 32.4169 60.2731 32.3956C60.3881 32.3743 60.4776 32.3572 60.5415 32.3445L60.8867 33.9233C60.7759 33.9659 60.6183 34.0085 60.4137 34.0511C60.2092 34.098 59.9535 34.1236 59.6467 34.1278C59.1438 34.1364 58.6751 34.0469 58.2404 33.8594C57.8058 33.6719 57.4542 33.3821 57.1857 32.9901C56.9173 32.598 56.783 32.1058 56.783 31.5135V21.8295ZM65.6792 34.2173C65.057 34.2173 64.4945 34.1023 63.9917 33.8722C63.4888 33.6378 63.0904 33.299 62.7963 32.8558C62.5066 32.4126 62.3617 31.8693 62.3617 31.2259C62.3617 30.6719 62.4682 30.2159 62.6813 29.858C62.8944 29.5 63.182 29.2166 63.5442 29.0078C63.9064 28.799 64.3113 28.6413 64.7587 28.5348C65.2061 28.4283 65.6621 28.3473 66.1266 28.2919C66.7147 28.2237 67.1919 28.1683 67.5584 28.1257C67.9249 28.0788 68.1912 28.0043 68.3574 27.902C68.5236 27.7997 68.6067 27.6335 68.6067 27.4034V27.3587C68.6067 26.8004 68.449 26.3679 68.1337 26.0611C67.8226 25.7543 67.3581 25.6009 66.7402 25.6009C66.0968 25.6009 65.5897 25.7436 65.2189 26.0291C64.8525 26.3104 64.5989 26.6236 64.4583 26.9688L62.6621 26.5597C62.8752 25.9631 63.1863 25.4815 63.5953 25.1151C64.0087 24.7443 64.4838 24.4759 65.0208 24.3097C65.5577 24.1392 66.1223 24.054 66.7147 24.054C67.1067 24.054 67.5222 24.1009 67.9611 24.1946C68.4043 24.2841 68.8176 24.4503 69.2012 24.6932C69.589 24.9361 69.9064 25.2834 70.1536 25.7351C70.4007 26.1825 70.5243 26.7642 70.5243 27.4801V34H68.6578V32.6577H68.5811C68.4576 32.9048 68.2722 33.1477 68.025 33.3864C67.7779 33.625 67.4604 33.8232 67.0726 33.9808C66.6848 34.1385 66.2203 34.2173 65.6792 34.2173ZM66.0946 32.6832C66.623 32.6832 67.0748 32.5788 67.4498 32.37C67.829 32.1612 68.1167 31.8885 68.3127 31.5518C68.513 31.2109 68.6131 30.8466 68.6131 30.4588V29.1932C68.5449 29.2614 68.4128 29.3253 68.2168 29.3849C68.025 29.4403 67.8056 29.4893 67.5584 29.532C67.3113 29.5703 67.0705 29.6065 66.8361 29.6406C66.6017 29.6705 66.4057 29.696 66.248 29.7173C65.8773 29.7642 65.5385 29.843 65.2317 29.9538C64.9292 30.0646 64.6863 30.2244 64.503 30.4332C64.324 30.6378 64.2346 30.9105 64.2346 31.2514C64.2346 31.7244 64.4093 32.0824 64.7587 32.3253C65.1081 32.5639 65.5534 32.6832 66.0946 32.6832ZM77.2056 34.1982C76.2553 34.1982 75.4371 33.983 74.7511 33.5526C74.0692 33.1179 73.5451 32.5192 73.1786 31.7564C72.8121 30.9936 72.6289 30.12 72.6289 29.1357C72.6289 28.1385 72.8164 27.2585 73.1914 26.4957C73.5664 25.7287 74.0948 25.13 74.7766 24.6996C75.4585 24.2692 76.2617 24.054 77.1864 24.054C77.9322 24.054 78.5969 24.1925 79.1808 24.4695C79.7646 24.7422 80.2354 25.1257 80.5934 25.62C80.9556 26.1143 81.1708 26.6918 81.239 27.3523H79.3789C79.2766 26.892 79.0423 26.4957 78.6758 26.1634C78.3136 25.831 77.8278 25.6648 77.2184 25.6648C76.6857 25.6648 76.2191 25.8054 75.8185 26.0866C75.4222 26.3636 75.1133 26.7599 74.8917 27.2756C74.6701 27.7869 74.5593 28.392 74.5593 29.0909C74.5593 29.8068 74.668 30.4247 74.8853 30.9446C75.1026 31.4645 75.4094 31.8672 75.8058 32.1527C76.2063 32.4382 76.6772 32.581 77.2184 32.581C77.5806 32.581 77.9087 32.5149 78.2028 32.3828C78.5011 32.2464 78.7504 32.0526 78.9506 31.8011C79.1552 31.5497 79.2979 31.2472 79.3789 30.8935H81.239C81.1708 31.5284 80.9641 32.0952 80.619 32.5938C80.2738 33.0923 79.8114 33.4844 79.2319 33.7699C78.6566 34.0554 77.9812 34.1982 77.2056 34.1982ZM87.8659 24.1818V25.7159H82.503V24.1818H87.8659ZM83.9412 21.8295H85.8525V31.1172C85.8525 31.4879 85.9078 31.767 86.0186 31.9545C86.1294 32.1378 86.2722 32.2635 86.4469 32.3317C86.6259 32.3956 86.8198 32.4276 87.0286 32.4276C87.182 32.4276 87.3162 32.4169 87.4313 32.3956C87.5463 32.3743 87.6358 32.3572 87.6998 32.3445L88.0449 33.9233C87.9341 33.9659 87.7765 34.0085 87.5719 34.0511C87.3674 34.098 87.1117 34.1236 86.8049 34.1278C86.302 34.1364 85.8333 34.0469 85.3986 33.8594C84.964 33.6719 84.6124 33.3821 84.3439 32.9901C84.0755 32.598 83.9412 32.1058 83.9412 31.5135V21.8295ZM103.316 20.9091H105.297V29.5192C105.297 30.4354 105.082 31.2472 104.651 31.9545C104.221 32.6577 103.616 33.2116 102.836 33.6165C102.056 34.017 101.142 34.2173 100.094 34.2173C99.0499 34.2173 98.138 34.017 97.3581 33.6165C96.5783 33.2116 95.9732 32.6577 95.5428 31.9545C95.1124 31.2472 94.8972 30.4354 94.8972 29.5192V20.9091H96.8723V29.3594C96.8723 29.9517 97.0023 30.478 97.2623 30.9382C97.5265 31.3984 97.8993 31.7607 98.3809 32.0249C98.8624 32.2848 99.4334 32.4148 100.094 32.4148C100.759 32.4148 101.332 32.2848 101.813 32.0249C102.299 31.7607 102.67 31.3984 102.926 30.9382C103.186 30.478 103.316 29.9517 103.316 29.3594V20.9091ZM115.373 26.5788L113.64 26.8857C113.568 26.6641 113.453 26.4531 113.295 26.2528C113.142 26.0526 112.933 25.8885 112.669 25.7607C112.404 25.6328 112.074 25.5689 111.678 25.5689C111.137 25.5689 110.685 25.6903 110.323 25.9332C109.961 26.1719 109.779 26.4808 109.779 26.8601C109.779 27.1882 109.901 27.4524 110.144 27.6527C110.387 27.853 110.779 28.017 111.32 28.1449L112.88 28.5028C113.783 28.7116 114.456 29.0334 114.9 29.468C115.343 29.9027 115.564 30.4673 115.564 31.1619C115.564 31.75 115.394 32.2741 115.053 32.7344C114.716 33.1903 114.245 33.5483 113.64 33.8082C113.039 34.0682 112.343 34.1982 111.55 34.1982C110.451 34.1982 109.554 33.9638 108.859 33.495C108.164 33.022 107.738 32.3509 107.581 31.4815L109.428 31.2003C109.543 31.6818 109.779 32.0462 110.137 32.2933C110.495 32.5362 110.962 32.6577 111.537 32.6577C112.164 32.6577 112.664 32.5277 113.039 32.2678C113.414 32.0036 113.602 31.6818 113.602 31.3026C113.602 30.9957 113.487 30.7379 113.257 30.5291C113.031 30.3203 112.684 30.1626 112.215 30.0561L110.553 29.6918C109.637 29.483 108.959 29.1506 108.52 28.6946C108.086 28.2386 107.868 27.6612 107.868 26.9624C107.868 26.3828 108.03 25.8757 108.354 25.4411C108.678 25.0064 109.125 24.6676 109.696 24.4247C110.267 24.1776 110.922 24.054 111.659 24.054C112.72 24.054 113.555 24.2841 114.164 24.7443C114.774 25.2003 115.176 25.8118 115.373 26.5788Z" fill="#141414"/>
</svg>