<svg width="144" height="19" viewBox="0 0 144 19" fill="none" xmlns="http://www.w3.org/2000/svg">
    <path d="M7.92895 0.98855C8.70164 -0.329416 10.607 -0.329414 11.3796 0.988552L13.1055 3.9323C13.3875 4.41326 13.8574 4.7547 14.402 4.87425L17.735 5.60596C19.2272 5.93355 19.816 7.74561 18.8013 8.88776L16.5349 11.4388C16.1646 11.8556 15.9851 12.4081 16.0397 12.9629L16.3738 16.3589C16.5233 17.8793 14.9819 18.9992 13.5821 18.3871L10.4556 17.02C9.94474 16.7967 9.36386 16.7967 8.85302 17.02L5.7265 18.3871C4.3267 18.9992 2.78527 17.8793 2.93483 16.3589L3.26889 12.9629C3.32347 12.4081 3.14396 11.8556 2.77367 11.4388L0.507318 8.88775C-0.507367 7.74561 0.0814083 5.93355 1.57364 5.60595L4.90662 4.87425C5.45119 4.7547 5.92113 4.41326 6.20311 3.9323L7.92895 0.98855Z" fill="#FFCE22"/>
    <path d="M38.929 0.98855C39.7016 -0.329416 41.607 -0.329414 42.3796 0.988552L44.1055 3.9323C44.3875 4.41326 44.8574 4.7547 45.402 4.87425L48.735 5.60596C50.2272 5.93355 50.816 7.74561 49.8013 8.88776L47.5349 11.4388C47.1646 11.8556 46.9851 12.4081 47.0397 12.9629L47.3738 16.3589C47.5233 17.8793 45.9819 18.9992 44.5821 18.3871L41.4556 17.02C40.9447 16.7967 40.3639 16.7967 39.853 17.02L36.7265 18.3871C35.3267 18.9992 33.7853 17.8793 33.9348 16.3589L34.2689 12.9629C34.3235 12.4081 34.144 11.8556 33.7737 11.4388L31.5073 8.88775C30.4926 7.74561 31.0814 5.93355 32.5736 5.60595L35.9066 4.87425C36.4512 4.7547 36.9211 4.41326 37.2031 3.9323L38.929 0.98855Z" fill="#FFCE22"/>
    <path d="M69.929 0.98855C70.7016 -0.329416 72.607 -0.329414 73.3796 0.988552L75.1055 3.9323C75.3875 4.41326 75.8574 4.7547 76.402 4.87425L79.735 5.60596C81.2272 5.93355 81.816 7.74561 80.8013 8.88776L78.5349 11.4388C78.1646 11.8556 77.9851 12.4081 78.0397 12.9629L78.3738 16.3589C78.5233 17.8793 76.9819 18.9992 75.5821 18.3871L72.4556 17.02C71.9447 16.7967 71.3639 16.7967 70.853 17.02L67.7265 18.3871C66.3267 18.9992 64.7853 17.8793 64.9348 16.3589L65.2689 12.9629C65.3235 12.4081 65.144 11.8556 64.7737 11.4388L62.5073 8.88775C61.4926 7.74561 62.0814 5.93355 63.5736 5.60595L66.9066 4.87425C67.4512 4.7547 67.9211 4.41326 68.2031 3.9323L69.929 0.98855Z" fill="#FFCE22"/>
    <path d="M100.929 0.98855C101.702 -0.329416 103.607 -0.329414 104.38 0.988552L106.105 3.9323C106.387 4.41326 106.857 4.7547 107.402 4.87425L110.735 5.60596C112.227 5.93355 112.816 7.74561 111.801 8.88776L109.535 11.4388C109.165 11.8556 108.985 12.4081 109.04 12.9629L109.374 16.3589C109.523 17.8793 107.982 18.9992 106.582 18.3871L103.456 17.02C102.945 16.7967 102.364 16.7967 101.853 17.02L98.7265 18.3871C97.3267 18.9992 95.7853 17.8793 95.9348 16.3589L96.2689 12.9629C96.3235 12.4081 96.144 11.8556 95.7737 11.4388L93.5073 8.88775C92.4926 7.74561 93.0814 5.93355 94.5736 5.60595L97.9066 4.87425C98.4512 4.7547 98.9211 4.41326 99.2031 3.9323L100.929 0.98855Z" fill="#FFCE22"/>
    <path d="M131.929 0.98855C132.702 -0.329416 134.607 -0.329414 135.38 0.988552L137.105 3.9323C137.387 4.41326 137.857 4.7547 138.402 4.87425L141.735 5.60596C143.227 5.93355 143.816 7.74561 142.801 8.88776L140.535 11.4388C140.165 11.8556 139.985 12.4081 140.04 12.9629L140.374 16.3589C140.523 17.8793 138.982 18.9992 137.582 18.3871L134.456 17.02C133.945 16.7967 133.364 16.7967 132.853 17.02L129.726 18.3871C128.327 18.9992 126.785 17.8793 126.935 16.3589L127.269 12.9629C127.323 12.4081 127.144 11.8556 126.774 11.4388L124.507 8.88775C123.493 7.74561 124.081 5.93355 125.574 5.60595L128.907 4.87425C129.451 4.7547 129.921 4.41326 130.203 3.9323L131.929 0.98855Z" fill="#FFCE22"/>
</svg>
