<svg width="112" height="24" viewBox="0 0 112 24" fill="none" xmlns="http://www.w3.org/2000/svg">
<path d="M21.0566 7.18114C21.0659 7.39235 21.0659 7.59395 21.0659 7.80515C21.0752 14.2084 16.3707 21.6004 7.76744 21.6004C5.22999 21.6004 2.73885 20.842 0.599609 19.4212C0.97004 19.4692 1.34047 19.4884 1.7109 19.4884C3.81309 19.4884 5.85972 18.7588 7.5174 17.4052C5.51707 17.3668 3.75753 16.0132 3.14632 14.0356C3.85014 14.1796 4.57248 14.1508 5.25777 13.9492C3.08149 13.5076 1.51642 11.5204 1.50716 9.20675C1.50716 9.18755 1.50716 9.16835 1.50716 9.14915C2.15542 9.52355 2.88702 9.73475 3.62788 9.75395C1.58125 8.33315 0.942258 5.50114 2.1832 3.28353C4.56322 6.31714 8.06378 8.15075 11.8237 8.35235C11.444 6.67234 11.9626 4.90594 13.1757 3.71553C15.0557 1.88193 18.0191 1.97793 19.7972 3.92673C20.8436 3.71553 21.8531 3.31233 22.7699 2.74593C22.418 3.86913 21.6864 4.81954 20.714 5.42434C21.6401 5.30914 22.5476 5.04994 23.3996 4.66594C22.7699 5.64514 21.9734 6.48994 21.0566 7.18114Z" fill="white"/>
<path d="M57.5374 12.2281C57.5374 15.9988 54.5069 19.0556 50.7688 19.0556C47.0307 19.0556 44 15.9981 44 12.2281C44 8.45806 47.0305 5.40039 50.7688 5.40039C54.5072 5.40039 57.5374 8.45737 57.5374 12.2281Z" fill="white"/>
<path d="M64.9632 12.2285C64.9632 15.7778 63.4479 18.6563 61.5788 18.6563C59.7096 18.6563 58.1943 15.7778 58.1943 12.2285C58.1943 8.67922 59.7094 5.80078 61.5785 5.80078C63.4477 5.80078 64.9629 8.67829 64.9629 12.2285" fill="white"/>
<path d="M67.9995 12.228C67.9995 15.4073 67.4667 17.9862 66.8092 17.9862C66.1517 17.9862 65.6191 15.408 65.6191 12.228C65.6191 9.04797 66.152 6.46973 66.8092 6.46973C67.4665 6.46973 67.9995 9.04774 67.9995 12.228Z" fill="white"/>
<path d="M108.864 1.59961H91.1351C90.7278 1.59961 90.3373 1.76138 90.0493 2.04933C89.7614 2.33728 89.5996 2.72783 89.5996 3.13505V20.8642C89.5996 21.2714 89.7614 21.6619 90.0493 21.9499C90.3373 22.2378 90.7278 22.3996 91.1351 22.3996H108.864C109.271 22.3996 109.662 22.2378 109.95 21.9499C110.238 21.6619 110.4 21.2714 110.4 20.8642V3.13505C110.4 2.72783 110.238 2.33728 109.95 2.04933C109.662 1.76138 109.271 1.59961 108.864 1.59961ZM95.7992 19.3186H92.6719V9.38516H95.7992V19.3186ZM94.2334 8.00861C93.8787 8.00661 93.5325 7.89958 93.2385 7.70102C92.9446 7.50246 92.716 7.22127 92.5817 6.89294C92.4474 6.56461 92.4134 6.20386 92.4839 5.8562C92.5544 5.50855 92.7264 5.18958 92.978 4.93955C93.2296 4.68952 93.5497 4.51964 93.8978 4.45134C94.2459 4.38304 94.6064 4.41939 94.9339 4.5558C95.2614 4.6922 95.5411 4.92255 95.7377 5.21778C95.9344 5.51301 96.0392 5.85988 96.0389 6.21461C96.0423 6.45211 95.9978 6.68784 95.9081 6.90777C95.8184 7.1277 95.6853 7.32732 95.5168 7.49473C95.3483 7.66215 95.1479 7.79392 94.9274 7.88221C94.7069 7.97049 94.4709 8.01348 94.2334 8.00861ZM107.326 19.3273H104.2V13.9005C104.2 12.3001 103.52 11.8061 102.642 11.8061C101.714 11.8061 100.804 12.5052 100.804 13.9409V19.3273H97.6769V9.39239H100.684V10.7689H100.725C101.027 10.1579 102.084 9.11361 103.697 9.11361C105.442 9.11361 107.327 10.1493 107.327 13.1826L107.326 19.3273Z" fill="white"/>
</svg>
