<svg width="58" height="32" viewBox="0 0 58 32" fill="none" xmlns="http://www.w3.org/2000/svg">
<rect x="0.5" y="0.5" width="57" height="31" rx="5.5" fill="#1A1A1A"/>
<rect x="0.5" y="0.5" width="57" height="31" rx="5.5" stroke="url(#paint0_linear_4_33488)"/>
<path d="M22.6364 10.3636V22H21.2727L14.9318 12.8636H14.8182V22H13.4091V10.3636H14.7727L21.1364 19.5227H21.25V10.3636H22.6364ZM28.4532 22.1818C27.6123 22.1818 26.887 21.9962 26.2771 21.625C25.671 21.25 25.2032 20.7273 24.8737 20.0568C24.5479 19.3826 24.3851 18.5985 24.3851 17.7045C24.3851 16.8106 24.5479 16.0227 24.8737 15.3409C25.2032 14.6553 25.6616 14.1212 26.2487 13.7386C26.8396 13.3523 27.529 13.1591 28.3169 13.1591C28.7714 13.1591 29.2203 13.2348 29.6635 13.3864C30.1066 13.5379 30.5101 13.7841 30.8737 14.125C31.2373 14.4621 31.5271 14.9091 31.743 15.4659C31.9589 16.0227 32.0669 16.7083 32.0669 17.5227V18.0909H25.3396V16.9318H30.7032C30.7032 16.4394 30.6048 16 30.4078 15.6136C30.2146 15.2273 29.9381 14.9223 29.5782 14.6989C29.2222 14.4754 28.8017 14.3636 28.3169 14.3636C27.7828 14.3636 27.3207 14.4962 26.9305 14.7614C26.5441 15.0227 26.2468 15.3636 26.0385 15.7841C25.8301 16.2045 25.726 16.6553 25.726 17.1364V17.9091C25.726 18.5682 25.8396 19.1269 26.0669 19.5852C26.2979 20.0398 26.618 20.3864 27.0271 20.625C27.4362 20.8598 27.9116 20.9773 28.4532 20.9773C28.8055 20.9773 29.1237 20.928 29.4078 20.8295C29.6957 20.7273 29.9438 20.5758 30.1521 20.375C30.3604 20.1705 30.5214 19.9167 30.6351 19.6136L31.9305 19.9773C31.7941 20.4167 31.565 20.803 31.243 21.1364C30.921 21.4659 30.5233 21.7235 30.0498 21.9091C29.5763 22.0909 29.0441 22.1818 28.4532 22.1818ZM35.6039 22L32.9448 13.2727H34.3539L36.2403 19.9545H36.3312L38.1948 13.2727H39.6266L41.4676 19.9318H41.5585L43.4448 13.2727H44.8539L42.1948 22H40.8766L38.9676 15.2955H38.8312L36.9221 22H35.6039Z" fill="white"/>
<defs>
<linearGradient id="paint0_linear_4_33488" x1="-14.5" y1="39.5" x2="119" y2="-47" gradientUnits="userSpaceOnUse">
<stop offset="0.356369" stop-color="#262626"/>
<stop offset="1" stop-color="#FFD119"/>
</linearGradient>
</defs>
</svg>
