<svg width="20" height="20" viewBox="0 0 20 20" fill="none" xmlns="http://www.w3.org/2000/svg">
<path d="M18.0023 9.02277C18.2153 9.29073 18.3332 9.63887 18.3332 9.99985C18.3332 10.3608 18.2153 10.709 18.0023 10.9769C16.6536 12.6249 13.5836 15.8332 9.99984 15.8332C6.4161 15.8332 3.34616 12.6249 1.99744 10.9769C1.78442 10.709 1.6665 10.3608 1.6665 9.99985C1.6665 9.63887 1.78442 9.29073 1.99744 9.02277C3.34616 7.37484 6.4161 4.1665 9.99984 4.1665C13.5836 4.1665 16.6536 7.37484 18.0023 9.02277Z" stroke="#FFD11A" stroke-width="1.5" stroke-linecap="round" stroke-linejoin="round"/>
<path d="M10.0003 12.5923C11.4191 12.5923 12.5693 11.4316 12.5693 9.99973C12.5693 8.5679 11.4191 7.40717 10.0003 7.40717C8.58145 7.40717 7.43127 8.5679 7.43127 9.99973C7.43127 11.4316 8.58145 12.5923 10.0003 12.5923Z" stroke="#FFD11A" stroke-width="1.5" stroke-linecap="round" stroke-linejoin="round"/>
</svg>
