<svg width="40" height="40" viewBox="0 0 40 40" fill="none" xmlns="http://www.w3.org/2000/svg">
<path d="M23.1421 27.5334H16.8977V40.0001H23.1421V27.5334Z" fill="#FFD11A"/>
<path d="M23.1421 0H16.8977V12.4667H23.1421V0Z" fill="#FFD11A"/>
<path d="M27.5278 16.8757V23.1201H39.9945V16.8757H27.5278Z" fill="#FFD11A"/>
<path d="M0 16.8813L0 23.1257H12.4667V16.8813H0Z" fill="#FFD11A"/>
<path d="M27.5397 23.1014L23.1243 27.5168L31.9394 36.332L36.3549 31.9166L27.5397 23.1014Z" fill="#404040"/>
<path d="M8.07243 3.63656L3.65698 8.052L12.4722 16.8672L16.8876 12.4517L8.07243 3.63656Z" fill="#404040"/>
<path d="M23.1087 12.4708L27.5242 16.8862L36.3394 8.07105L31.9239 3.65559L23.1087 12.4708Z" fill="#404040"/>
<path d="M3.64559 31.9359L8.06104 36.3513L16.8762 27.5361L12.4608 23.1207L3.64559 31.9359Z" fill="#404040"/>
</svg>
