<svg width="20" height="20" viewBox="0 0 20 20" fill="none" xmlns="http://www.w3.org/2000/svg">
<path d="M17.387 1.33301H2.61279C2.27343 1.33301 1.94798 1.46782 1.70802 1.70778C1.46806 1.94774 1.33325 2.27319 1.33325 2.61255V17.3868C1.33325 17.7262 1.46806 18.0516 1.70802 18.2916C1.94798 18.5315 2.27343 18.6663 2.61279 18.6663H17.387C17.7264 18.6663 18.0519 18.5315 18.2918 18.2916C18.5318 18.0516 18.6666 17.7262 18.6666 17.3868V2.61255C18.6666 2.27319 18.5318 1.94774 18.2918 1.70778C18.0519 1.46782 17.7264 1.33301 17.387 1.33301ZM6.49955 16.0988H3.89353V7.82097H6.49955V16.0988ZM5.19473 6.67384C4.89913 6.67218 4.61064 6.58298 4.36567 6.41752C4.12071 6.25205 3.93025 6.01772 3.81833 5.74412C3.70641 5.47051 3.67805 5.16988 3.73683 4.88017C3.79561 4.59046 3.93889 4.32465 4.14859 4.11629C4.35829 3.90794 4.62501 3.76637 4.91509 3.70945C5.20517 3.65254 5.50561 3.68283 5.77849 3.7965C6.05138 3.91017 6.28447 4.10213 6.44837 4.34815C6.61226 4.59417 6.6996 4.88323 6.69936 5.17884C6.70215 5.37675 6.66507 5.5732 6.59032 5.75648C6.51557 5.93975 6.40468 6.1061 6.26428 6.24561C6.12387 6.38512 5.95681 6.49493 5.77306 6.56851C5.58931 6.64208 5.39262 6.6779 5.19473 6.67384ZM16.1051 16.1061H13.5003V11.5837C13.5003 10.25 12.9333 9.83838 12.2015 9.83838C11.4287 9.83838 10.6704 10.421 10.6704 11.6175V16.1061H8.06436V7.82699H10.5705V8.97412H10.6042C10.8558 8.46495 11.7369 7.59468 13.0814 7.59468C14.5355 7.59468 16.1063 8.45773 16.1063 10.9855L16.1051 16.1061Z" fill="white"/>
</svg>
