<svg width="20" height="20" viewBox="0 0 20 20" fill="none" xmlns="http://www.w3.org/2000/svg">
<g clip-path="url(#clip0_4_36967)">
<path d="M11.2812 10.1897C11.2812 13.332 8.75578 15.8793 5.6407 15.8793C2.52561 15.8793 0 13.3314 0 10.1897C0 7.04806 2.52542 4.5 5.6407 4.5C8.75597 4.5 11.2812 7.04749 11.2812 10.1897Z" fill="white"/>
<path d="M17.4691 10.1895C17.4691 13.1472 16.2064 15.5459 14.6487 15.5459C13.0911 15.5459 11.8284 13.1472 11.8284 10.1895C11.8284 7.2317 13.0909 4.83301 14.6485 4.83301C16.2062 4.83301 17.4689 7.23094 17.4689 10.1895" fill="white"/>
<path d="M20 10.1901C20 12.8396 19.556 14.9887 19.0081 14.9887C18.4602 14.9887 18.0164 12.8402 18.0164 10.1901C18.0164 7.54014 18.4604 5.3916 19.0081 5.3916C19.5558 5.3916 20 7.53994 20 10.1901Z" fill="white"/>
</g>
<defs>
<clipPath id="clip0_4_36967">
<rect width="20" height="20" fill="white"/>
</clipPath>
</defs>
</svg>
